<svg width="14" height="14" viewBox="0 0 14 14" fill="none" xmlns="http://www.w3.org/2000/svg">
<path d="M6.18333 9.45L10.2958 5.3375L9.47917 4.52083L6.18333 7.81667L4.52083 6.15417L3.70417 6.97083L6.18333 9.45ZM2.91667 12.25C2.59583 12.25 2.32128 12.1359 2.093 11.9076C1.86472 11.6793 1.75039 11.4046 1.75 11.0833V2.91667C1.75 2.59583 1.86433 2.32128 2.093 2.093C2.32167 1.86472 2.59622 1.75039 2.91667 1.75H11.0833C11.4042 1.75 11.6789 1.86433 11.9076 2.093C12.1362 2.32167 12.2504 2.59622 12.25 2.91667V11.0833C12.25 11.4042 12.1359 11.6789 11.9076 11.9076C11.6793 12.1362 11.4046 12.2504 11.0833 12.25H2.91667ZM2.91667 11.0833H11.0833V2.91667H2.91667V11.0833Z" fill="#EDB046"/>
</svg>
